<?xml version="1.0" encoding="utf-8"?>
<!-- Generator: Adobe Illustrator 23.1.1, SVG Export Plug-In . SVG Version: 6.00 Build 0)  -->
<svg version="1.1" id="Capa_1" xmlns="http://www.w3.org/2000/svg" xmlns:xlink="http://www.w3.org/1999/xlink" x="0px" y="0px"
	 viewBox="0 0 452.5 532.3" style="enable-background:new 0 0 452.5 532.3;" xml:space="preserve">
<style type="text/css">
	.st0{fill:#FFFFFF;}
</style>
<g>
	<path class="st0" d="M185.9,348.6c3.4,1.7,7.3,3.4,10.6,4.5c1.1,0.6,1.7,1.1,2.2,2.8l3.4,32.5c0.6,5,5,9,10.1,9h28
		c5,0,9.5-3.9,10.1-9l3.4-32.5c0-1.1,1.1-2.2,2.2-2.8c3.9-1.1,7.3-2.8,10.6-4.5c1.1-0.6,2.2-0.6,3.4,0.6l25.8,20.7
		c3.9,3.4,10.1,2.8,14-0.6l20.2-20.2c3.9-3.9,3.9-9.5,0.6-14l-20.7-25.8c-0.6-1.1-1.1-2.2-0.6-3.4c1.7-3.4,3.4-7.3,4.5-10.6
		c0.6-1.1,1.1-1.7,2.8-2.2l32.5-3.4c5-0.6,9-5,9-10.1v-28c0-5-3.9-9.5-9-10.1l-33-2.8c-1.1,0-2.2-1.1-2.8-2.2
		c-1.1-3.9-2.8-7.3-4.5-10.6c-0.6-1.1-0.6-2.2,0.6-3.4l20.7-25.8c3.4-3.9,2.8-10.1-0.6-14l-20.2-20.2c-3.9-3.9-9.5-3.9-14-0.6
		l-25.8,20.7c-1.1,0.6-2.2,1.1-3.4,0.6c-3.4-1.7-7.3-3.4-10.6-4.5c-1.1-0.6-1.7-1.1-2.2-2.8l-3.4-32.5c-0.6-5-5-9-10.1-9h-28
		c-5,0-9.5,3.9-10.1,9l-2.8,33c0,1.1-1.1,2.2-2.2,2.8c-3.9,1.1-7.3,2.8-10.6,4.5c-1.1,0.6-2.2,0.6-3.4-0.6l-25.8-20.7
		c-3.9-3.4-10.1-2.8-14,0.6l-20.2,20.2c-3.9,3.9-3.9,9.5-0.6,14l20.7,25.8c0.6,1.1,1.1,2.2,0.6,3.4c-1.7,3.4-3.4,7.3-4.5,10.6
		c-0.6,1.1-1.1,1.7-2.8,2.2l-32.5,3.4c-5,0.6-9,5-9,10.1v28c0,5,3.9,9.5,9,10.1l32.5,3.4c1.1,0,2.2,1.1,2.8,2.2
		c1.1,3.9,2.8,7.3,4.5,10.6c0.6,1.1,0.6,2.2-0.6,3.4l-20.7,25.8c-3.4,3.9-2.8,10.1,0.6,14l20.2,20.2c3.9,3.9,9.5,3.9,14,0.6
		l25.8-20.7C183.7,348.6,184.8,348,185.9,348.6L185.9,348.6z M226.2,212.5c29.7,0,53.8,24.1,53.8,53.8c0,29.7-24.1,53.8-53.8,53.8
		c-29.7,0-53.8-24.1-53.8-53.8C172.5,236.6,196.6,212.5,226.2,212.5L226.2,212.5z"/>
	<path class="st0" d="M212.8,290.4c1.7,2.2,4.5,3.4,7.3,3.4c2.8,0,5.6-1.1,7.3-3.4l26.9-32.5c3.4-3.9,2.8-10.1-1.1-14
		c-3.9-3.4-10.1-2.8-13.4,1.1l-19.6,23.5l-7.3-9c-3.4-3.9-9.5-4.5-14-1.1c-3.9,3.4-4.5,9.5-1.1,14L212.8,290.4z"/>
	<path class="st0" d="M27.4,266.3c0-109.8,89-198.8,198.8-198.8h3.9l-16.2,16.2c-5.6,5.6-5.6,14,0,19.6c2.8,2.8,6.2,3.9,9.5,3.9
		s7.3-1.1,9.5-3.9l39.8-39.8c5.6-5.6,5.6-14,0-19.6L233,4.2c-5.6-5.6-14-5.6-19.6,0c-5.6,5.6-5.6,14,0,19.6L229.6,40l-3.4,0
		C101.4,40,0,141.4,0,266.3c0,72.2,34.7,140.6,93,182.6c2.2,1.7,5,2.8,7.8,2.8c4.5,0,8.4-1.7,11.2-5.6c4.5-6.2,3.4-14.6-2.8-19
		C58.2,389.5,27.4,329.6,27.4,266.3L27.4,266.3z"/>
	<path class="st0" d="M452.5,266.3c0-72.2-34.7-140.6-93-182.6c-6.2-4.5-14.6-3.4-19,2.8c-4.5,6.2-3.4,14.6,2.8,19
		c51,37.5,81.8,97.4,81.8,160.7c0,109.8-89,198.8-198.8,198.8h-3.9l16.2-16.2c5.6-5.6,5.6-14,0-19.6c-5.6-5.6-14-5.6-19.6,0
		L179.2,469c-5.6,5.6-5.6,14,0,19.6l39.8,39.8c2.8,2.8,6.2,3.9,9.5,3.9s7.3-1.1,9.5-3.9c5.6-5.6,5.6-14,0-19.6l-16.2-16.2l4.5,0
		C351.1,492.5,452.5,391.2,452.5,266.3L452.5,266.3z"/>
</g>
</svg>
