<?xml version="1.0" encoding="utf-8"?>
<!-- Generator: Adobe Illustrator 23.1.1, SVG Export Plug-In . SVG Version: 6.00 Build 0)  -->
<svg version="1.1" id="Capa_1" xmlns="http://www.w3.org/2000/svg" xmlns:xlink="http://www.w3.org/1999/xlink" x="0px" y="0px"
	 viewBox="0 0 506.6 513.3" style="enable-background:new 0 0 506.6 513.3;" xml:space="preserve">
<style type="text/css">
	.st0{fill:#FFFFFF;}
</style>
<g>
	<path class="st0" d="M234.6,268.3l33.7-33.7c4.5-4.6,4.5-11.9,0-16.4l-26.7-26.5c1.3-2.8,2.6-5.6,3.6-8.5H283
		c3.1,0,6.1-1.2,8.2-3.4s3.4-5.2,3.4-8.2v-47.7c0-3.1-1.2-6.1-3.4-8.2s-5.2-3.4-8.2-3.4h-37.7c-1.1-3-2.3-5.9-3.6-8.8l26.6-26.5
		c2.2-2.2,3.4-5.1,3.4-8.2c0-3.1-1.2-6.1-3.4-8.3l-33.7-33.7c-2.2-2.2-5.2-3.5-8.3-3.5c-3.1,0-6.1,1.2-8.3,3.5l-26.5,26.5
		c-2.7-1.4-5.5-2.6-8.3-3.6V11.7c0-3.1-1.2-6.1-3.4-8.2S174.7,0,171.6,0h-48.2c-6.4,0-11.7,5.2-11.7,11.7v38.1
		c-2.9,1-5.8,2.2-8.5,3.6L76.5,26.7c-2.2-2.2-5.2-3.5-8.3-3.5c-3.1,0-6.1,1.2-8.3,3.5L26.3,60.4c-4.5,4.6-4.5,11.9,0,16.4L53.3,104
		c-1.3,2.6-2.4,5.4-3.4,8.2H11.7c-6.4,0-11.7,5.2-11.7,11.7v47.7c0,3.1,1.2,6.1,3.4,8.2s5.2,3.4,8.2,3.4h38.5
		c1.1,2.8,2.1,5.4,3.4,8.1l-27.3,27.3c-4.5,4.6-4.5,11.9,0,16.4L60,268.3c2.2,2.2,5.2,3.4,8.3,3.4c3.1,0,6.1-1.2,8.3-3.4l27.3-27.3
		c2.6,1.3,5.2,2.3,7.9,3.4v38.5c0,3.1,1.2,6.1,3.4,8.2c2.2,2.2,5.2,3.4,8.2,3.4h48.2c3.1,0,6.1-1.2,8.2-3.4s3.4-5.2,3.4-8.2V245
		c2.8-1.1,5.5-2.1,8.2-3.4l26.8,26.7C222.8,272.8,230.1,272.8,234.6,268.3L234.6,268.3z M188,216.9L188,216.9
		c-6.1,3.5-12.6,6.2-19.4,7.9c-5.2,1.4-8.8,6.2-8.6,11.7v35h-24.9v-35c0.2-5.4-3.4-10.3-8.6-11.7c-6.7-1.8-13.1-4.4-19-7.9
		c-4.6-2.7-10.4-1.9-14.1,1.9L68.3,244l-17.1-17.3l25-25h0c3.9-3.7,4.8-9.5,2.2-14.1c-3.5-6-6.2-12.4-7.9-19.1
		c-1.4-5.2-6.2-8.8-11.7-8.6h-35v-24.4h35c5.4,0.2,10.3-3.4,11.7-8.6c1.8-6.8,4.4-13.3,7.9-19.4c2.5-4.7,1.5-10.5-2.4-14.1
		L51.1,68.7l17.1-17.3L92.9,76c3.7,3.8,9.5,4.5,14.1,1.9c6.1-3.5,12.6-6.2,19.5-7.8c5.2-1.4,8.8-6.2,8.6-11.7v-35H160v35
		c-0.2,5.4,3.4,10.3,8.6,11.7c6.9,1.8,13.6,4.6,19.8,8.2c4.6,2.7,10.4,1.9,14.1-1.9L226.8,52l17.3,17.3l-24.8,24
		c-3.7,3.7-4.5,9.4-1.9,14c3.6,6.2,6.4,12.9,8.2,19.8c1.4,5.2,6.2,8.8,11.7,8.6h35v24h-35c-5.4-0.2-10.3,3.4-11.7,8.6
		c-1.8,6.8-4.6,13.4-8.2,19.5c-2.7,4.6-1.9,10.4,1.9,14.1l24.6,24.6l-17.3,17.3l-24.9-24.9v0c-3.8-3.8-9.6-4.6-14.2-1.9L188,216.9z"
		/>
	<path class="st0" d="M148.3,93.3c-14.3,0-28,5.6-38.1,15.7c-10.1,10.1-15.8,23.8-15.8,38c0,14.3,5.7,28,15.8,38.1
		c10.1,10.1,23.8,15.8,38.1,15.8c14.3,0,28-5.7,38-15.8S202,161.3,202,147c0-14.2-5.7-27.9-15.8-37.9
		C176.1,99,162.5,93.4,148.3,93.3L148.3,93.3z M148.3,177.5c-8.1,0-15.8-3.2-21.6-8.9c-5.7-5.7-9-13.4-9-21.5
		c0-8.1,3.2-15.8,8.9-21.6c5.7-5.7,13.4-8.9,21.5-9c8.1,0,15.8,3.2,21.6,8.9c5.7,5.7,8.9,13.5,8.9,21.5c0.1,8.1-3.1,15.9-8.8,21.6
		c-5.7,5.8-13.4,9-21.5,9L148.3,177.5z"/>
	<path class="st0" d="M494.9,330h-37.6c-1-2.9-2.2-5.8-3.6-8.6l26.6-26.6c4.5-4.6,4.5-11.9,0-16.4L446.5,245
		c-4.6-4.5-11.9-4.5-16.4,0l-26.5,26.5c-2.9-1.3-5.8-2.6-8.8-3.6v-37.8c0-3.1-1.2-6.1-3.4-8.2c-2.2-2.2-5.2-3.4-8.2-3.4H335
		c-6.4,0-11.7,5.2-11.7,11.7v38.3c-2.9,1.1-5.7,2.3-8.5,3.6l-26.5-27c-2.2-2.2-5.2-3.4-8.3-3.4c-3.1,0-6.1,1.2-8.3,3.4L238,278.7
		c-4.5,4.6-4.5,11.9,0,16.4l27,26.7c-1.3,2.7-2.4,5.5-3.4,8.3h-37.9c-6.4,0-11.7,5.2-11.7,11.7v47.7c0,3.1,1.2,6.1,3.4,8.2
		s5.2,3.4,8.2,3.4h38.5c1.1,2.7,2.1,5.4,3.4,7.9l-27.3,27.3c-4.5,4.5-4.5,11.9,0,16.4l33.7,33.7h0c2.2,2.2,5.2,3.5,8.3,3.5
		c3.1,0,6.1-1.2,8.3-3.5l27.3-27.2l7.9,3.3l0,39c0,3.1,1.2,6.1,3.4,8.2s5.2,3.4,8.2,3.4h47.7c3.1,0,6.1-1.2,8.2-3.4
		c2.2-2.2,3.4-5.2,3.4-8.2v-38.7c2.8-0.9,5.5-2.1,8.2-3.3l27.1,26.9c4.6,4.5,11.9,4.5,16.4,0l33.8-33.7h0c4.5-4.6,4.5-11.9,0-16.4
		l-26.8-26.8c1.3-2.7,2.6-5.6,3.6-8.4h37.8l0,0c3.1,0,6.1-1.2,8.2-3.4s3.4-5.2,3.4-8.2v-47.8c0-3.1-1.2-6.1-3.4-8.2
		S498,330,494.9,330L494.9,330z M483.2,377.9h-35c-5.4-0.2-10.2,3.3-11.7,8.5c-1.8,6.8-4.6,13.4-8.2,19.5
		c-2.5,4.7-1.4,10.6,2.6,14.1l24.5,24.5l-17.1,17.3L413.5,437v0c-3.7-3.7-9.4-4.5-14-1.9c-6.1,3.4-12.6,6-19.4,7.8
		c-5.2,1.4-8.8,6.2-8.6,11.7v35h-24.9v-35c0.2-5.4-3.4-10.3-8.6-11.7c-6.7-1.8-13.1-4.4-19-7.9c-4.6-2.7-10.4-1.9-14.1,1.9
		L279.8,462l-17.3-17.3l25.8-24.7c3.8-3.7,4.5-9.5,1.9-14.1c-3.5-6-6.2-12.4-7.9-19.1c-1.5-5.2-6.3-8.7-11.7-8.5h-35v-24.7h35
		c5.5,0.2,10.3-3.5,11.7-8.8c1.7-6.8,4.4-13.3,7.9-19.4c2.6-4.6,1.8-10.3-2-14l-24.7-24.7l17.3-17.3l24.6,24.6h0
		c3.8,3.7,9.6,4.4,14.1,1.8c6.1-3.6,12.6-6.3,19.5-8.2c5.2-1.4,8.8-6.2,8.6-11.7v-35h24.4v35c-0.2,5.4,3.4,10.3,8.6,11.7
		c6.9,1.9,13.6,4.6,19.8,8.2c4.6,2.7,10.4,1.9,14.1-1.9l24.3-24.3l17.1,17.3l-24.3,24.3v0c-3.8,3.7-4.5,9.5-1.9,14.1
		c3.6,6.2,6.4,12.8,8.2,19.7c1.4,5.2,6.2,8.8,11.7,8.6h35L483.2,377.9z"/>
	<path class="st0" d="M359.7,311.5c-14.3,0-28,5.6-38.1,15.7c-10.1,10.1-15.8,23.8-15.8,38c0,14.3,5.6,28,15.7,38.1
		c10.1,10.1,23.8,15.8,38,15.8c14.3,0,28-5.6,38.1-15.7c10.1-10.1,15.8-23.8,15.8-38c0-14.2-5.7-27.9-15.7-38
		C387.6,317.3,373.9,311.6,359.7,311.5L359.7,311.5z M359.7,395.6c-8.1,0-15.9-3.2-21.6-8.9c-5.7-5.7-9-13.5-9-21.5
		c0-8.1,3.2-15.9,8.9-21.6c5.7-5.7,13.5-8.9,21.6-8.9c8.1,0,15.8,3.2,21.5,9c5.7,5.7,8.9,13.5,8.9,21.6c0,8-3.2,15.7-8.9,21.4
		C375.4,392.4,367.7,395.6,359.7,395.6L359.7,395.6z"/>
</g>
</svg>
