<?xml version="1.0" encoding="utf-8"?>
<!-- Generator: Adobe Illustrator 23.1.1, SVG Export Plug-In . SVG Version: 6.00 Build 0)  -->
<svg version="1.1" id="Capa_1" xmlns="http://www.w3.org/2000/svg" xmlns:xlink="http://www.w3.org/1999/xlink" x="0px" y="0px"
	 viewBox="0 0 434.5 390" style="enable-background:new 0 0 434.5 390;" xml:space="preserve">
<style type="text/css">
	.st0{fill:#FFFFFF;}
</style>
<g>
	<path class="st0" d="M127.1,152.5c-1.9-11.8-28.6-44.2-28.6-44.2s-15.6,39.2-13.7,51c1.9,11.8,13.1,19.9,24.9,18
		C120.8,174.9,128.9,164.3,127.1,152.5L127.1,152.5z"/>
	<path class="st0" d="M178.7,113.3c-1.9-10.6-26.1-39.8-26.1-39.8s-13.7,35.5-12.4,46c1.2,10.6,11.8,18,22.4,16.2
		C173.1,133.8,180.6,123.8,178.7,113.3L178.7,113.3z"/>
	<path class="st0" d="M245.9,326c2.5-1.9,5.6-3.7,8.7-4.4L208,289.3L61.7,309.3l-34.8-257l187.3-25.5l28,207.2l10,6.8
		c3.7-5.6,9.3-10,16.2-12.4L239.7,16.2C238.5,6.8,230.4,0,221,0h-2.5L16.3,27.4C5.7,28.6-1.1,38.6,0.1,48.5L40,344.1
		c1.2,9.3,9.3,16.2,18.7,16.2h2.5l175.5-23.6C239.1,332.9,242.2,329.2,245.9,326L245.9,326z M160,332.3c-5,0.6-10-3.1-10.6-8.1
		c-0.6-5,3.1-10,8.1-10.6c5-0.6,10,3.1,10.6,8.1C169.4,326.7,165.6,331,160,332.3z"/>
	<path class="st0" d="M170,224c1.9-2.5,4.4-5,6.8-6.8c-4.4-14.3-31.7-47.3-31.7-47.3s-16.8,43.6-14.9,56.6
		c1.9,13.1,14.3,21.8,27.4,19.9c2.5-0.6,5-1.2,6.8-2.5C163.8,237.1,165.6,229.6,170,224L170,224z"/>
	<path class="st0" d="M328.7,212.8c-5,7.5-3.1,18,4.4,23l-12.4-8.7c-7.5-5-18-3.1-23,4.4c-5,7.5-3.1,18,4.4,23l-12.4-8.7
		c-7.5-5-18-3.1-23,4.4c-5,7.5-3.1,18,4.4,23L206.7,229c-7.5-5-18-3.1-23,4.4c-5,7.5-3.1,18,4.4,23l125.7,85.9l-41.7-6.8
		c-11.2-1.9-22.4,6.2-23.6,17.4c-1.9,11.2,6.2,22.4,17.4,23.6l74.7,12.4c29.9,5,61.6-7.5,79.6-34.2c25.5-37.3,16.2-87.7-21.2-113.2
		l-47.3-32.4C344.2,203.5,333.7,205.3,328.7,212.8L328.7,212.8z"/>
</g>
</svg>
