<?xml version="1.0" encoding="utf-8"?>
<!-- Generator: Adobe Illustrator 23.1.1, SVG Export Plug-In . SVG Version: 6.00 Build 0)  -->
<svg version="1.1" id="Capa_1" xmlns="http://www.w3.org/2000/svg" xmlns:xlink="http://www.w3.org/1999/xlink" x="0px" y="0px"
	 viewBox="0 0 99.2 97.7" style="enable-background:new 0 0 99.2 97.7;" xml:space="preserve">
<style type="text/css">
	.st0{fill:#386FB1;}
	.st1{fill:#60A244;}
</style>
<g>
	<g>
		<path class="st0" d="M99.2,47.1c0-17.5-14.6-31.7-32.6-31.7c-6.2,0-12.1,1.7-17,4.7l-14.8-19l0,0C34.3,0.4,33.5,0,32.6,0
			s-1.7,0.4-2.2,1.1l0,0l-25,32.1L4.8,34h0.1C1.7,39,0,44.7,0,50.6c0,17.5,14.6,31.7,32.6,31.7c6.2,0,12.1-1.7,17-4.7l14.8,19l0,0
			c0.5,0.7,1.3,1.1,2.2,1.1s1.7-0.4,2.2-1.1l0,0l25-32.1l0.6-0.8h-0.1C97.5,58.7,99.2,53,99.2,47.1z M89.4,63.9l-0.6,0.8l0,0
			L67.6,92.4l0,0c-0.3,0.3-0.7,0.6-1.1,0.6s-0.9-0.2-1.1-0.6l0,0L52.5,75.6l-2.3-3.1c-1,0.7-2,1.4-3.1,2c-4.3,2.5-9.3,3.9-14.6,3.9
			c-15.8,0-28.7-12.5-28.7-27.8c0-6.1,2-12,5.8-16.8l0.6-0.8l0,0L31.4,5.3l0,0c0.3-0.3,0.7-0.6,1.1-0.6c0.5,0,0.9,0.2,1.1,0.6l0,0
			l12.9,16.8l2.3,3.1c1-0.7,2-1.4,3.1-2c4.3-2.5,9.3-3.9,14.6-3.9c15.8,0,28.7,12.5,28.7,27.8C95.3,53.2,93.3,59,89.4,63.9z"/>
		<g>
			<path class="st1" d="M66.5,47.1c-0.1-1.8-0.3-3.6-0.7-5.3c-0.7-3-1.8-5.9-3.2-8.5c-0.7-1.3-1.5-2.6-2.4-3.8
				c-1.9-2.6-4.2-5-6.8-6.9c-1.2-0.9-2.5-1.8-3.8-2.5c-1.3,0.8-2.6,1.6-3.8,2.5c-2.6,2-4.9,4.3-6.8,6.9c-0.9,1.2-1.7,2.5-2.4,3.8
				c-1.4,2.6-2.5,5.5-3.2,8.5c-0.4,1.7-0.6,3.5-0.7,5.3c0,0.6-0.1,1.2-0.1,1.8c0,10.6,5.2,20.1,13.2,26.2c1.2,0.9,2.5,1.8,3.8,2.5
				c1.3-0.8,2.6-1.6,3.8-2.5c8-6.1,13.2-15.6,13.2-26.2C66.6,48.3,66.6,47.7,66.5,47.1z M62.2,45.4L51.7,55.9v-9.6l8-9.5
				C61,39.4,61.8,42.4,62.2,45.4z M57.5,32.8l-5.8,6.9V26.5C53.9,28.3,55.9,30.4,57.5,32.8z M47.5,71.2c-5.9-4.9-9.9-11.9-10.6-19.9
				l10.6,10.6V71.2z M47.5,55.9L37,45.4c0.4-3.1,1.2-6,2.5-8.7l8,9.5V55.9z M47.5,39.7l-5.8-6.9c1.6-2.4,3.5-4.5,5.8-6.3V39.7z
				 M51.7,71.2v-9.3l10.6-10.6C61.6,59.3,57.6,66.3,51.7,71.2z"/>
		</g>
	</g>
</g>
</svg>
