<svg id="Capa_1" data-name="Capa 1" xmlns="http://www.w3.org/2000/svg" viewBox="0 0 483.33 103.57"><defs><style>.cls-1{fill:#5b5b5f;}.cls-2{fill:#4a72b2;}.cls-3{fill:#55973d;}</style></defs><title>logo_riegopro</title><path class="cls-1" d="M167.15,243.56a28.67,28.67,0,0,1,8,1,15.07,15.07,0,0,1,5.49,2.78,10.64,10.64,0,0,1,3.15,4.25,14.17,14.17,0,0,1,1,5.44,19.56,19.56,0,0,1-.88,5.89,17.12,17.12,0,0,1-6.59,9,19.26,19.26,0,0,1-5.43,2.62,7.6,7.6,0,0,1,1.55,1.28,7.48,7.48,0,0,1,1.22,1.8l9.68,20.21h-8.74a3.25,3.25,0,0,1-3.34-1.95l-7.95-17.59a3.29,3.29,0,0,0-1.1-1.4,3.79,3.79,0,0,0-2.05-.43h-3.79l-2.62,21.37h-9.68l6.6-54.22Zm-3.27,25.91a13.69,13.69,0,0,0,5.05-.84,9.59,9.59,0,0,0,3.5-2.33,9.39,9.39,0,0,0,2.07-3.47,13.18,13.18,0,0,0,.67-4.27A7.09,7.09,0,0,0,173,253c-1.46-1.32-3.71-2-6.73-2h-5.7l-2.25,18.41Z" transform="translate(-145.13 -224.3)"/><path class="cls-1" d="M199.88,297.78H190.1l6.6-54.22h9.78Z" transform="translate(-145.13 -224.3)"/><path class="cls-1" d="M226.77,251.32l-1.91,15.41H242l-.94,7.46H223.92L222,290h21.9l-1,7.76H211.25l6.67-54.22h31.61l-1,7.76Z" transform="translate(-145.13 -224.3)"/><path class="cls-1" d="M278.18,270.74h16.88l-2.7,21.79a29.27,29.27,0,0,1-8.89,4.43,37.94,37.94,0,0,1-10.87,1.42,22.14,22.14,0,0,1-9.06-1.8,20.63,20.63,0,0,1-7-5,22.58,22.58,0,0,1-4.48-7.62,28.34,28.34,0,0,1-1.57-9.62,36.41,36.41,0,0,1,1-8.68,32.93,32.93,0,0,1,2.87-7.59,29,29,0,0,1,4.48-6.28,28,28,0,0,1,5.85-4.76,27.28,27.28,0,0,1,7-3,29.36,29.36,0,0,1,7.9-1,28.15,28.15,0,0,1,6,.58,23.48,23.48,0,0,1,4.86,1.59,20.52,20.52,0,0,1,3.9,2.36,25.55,25.55,0,0,1,3.07,2.85l-3.15,4a3.05,3.05,0,0,1-1.84,1.3,2.81,2.81,0,0,1-2.21-.51l-2.17-1.4a15.85,15.85,0,0,0-2.39-1.26,14.13,14.13,0,0,0-2.94-.9,19.1,19.1,0,0,0-3.86-.34,16.63,16.63,0,0,0-13.24,6.25,21.53,21.53,0,0,0-3.79,7.16,30.23,30.23,0,0,0-1.35,9.32,22.38,22.38,0,0,0,1,7,15.18,15.18,0,0,0,2.79,5.21,12.15,12.15,0,0,0,4.33,3.29,13.61,13.61,0,0,0,5.65,1.14,22.34,22.34,0,0,0,5.4-.58,21.81,21.81,0,0,0,4.46-1.67l1.24-10.31h-6a1.82,1.82,0,0,1-1.41-.51,1.51,1.51,0,0,1-.39-1.26Z" transform="translate(-145.13 -224.3)"/><path class="cls-1" d="M352.77,267a36.13,36.13,0,0,1-1,8.57,33.16,33.16,0,0,1-2.84,7.56,29,29,0,0,1-4.46,6.3,28.15,28.15,0,0,1-5.87,4.8,27.82,27.82,0,0,1-7,3.05,28.8,28.8,0,0,1-7.95,1.07,22.54,22.54,0,0,1-9.3-1.84,20.59,20.59,0,0,1-7-5.06,22.09,22.09,0,0,1-4.44-7.61,28.52,28.52,0,0,1-1.54-9.53,36,36,0,0,1,1-8.56,32.83,32.83,0,0,1,2.85-7.56,29.64,29.64,0,0,1,4.47-6.3,27.63,27.63,0,0,1,5.85-4.82,27.17,27.17,0,0,1,7-3.07,28.91,28.91,0,0,1,8-1.07,22.7,22.7,0,0,1,9.3,1.83,20.62,20.62,0,0,1,7,5.07,22.27,22.27,0,0,1,4.42,7.63A28.66,28.66,0,0,1,352.77,267Zm-10,.23a22.86,22.86,0,0,0-.91-6.68,15,15,0,0,0-2.67-5.14,12,12,0,0,0-4.25-3.3,13.46,13.46,0,0,0-5.67-1.16,16.06,16.06,0,0,0-13.05,6.34,22.28,22.28,0,0,0-3.65,7.31,32.75,32.75,0,0,0-1.3,9.49,23.15,23.15,0,0,0,.9,6.67,14.59,14.59,0,0,0,2.63,5.12,11.65,11.65,0,0,0,4.22,3.27,13.49,13.49,0,0,0,5.68,1.14,16.21,16.21,0,0,0,13.12-6.3,21.74,21.74,0,0,0,3.66-7.26A32.63,32.63,0,0,0,342.79,267.26Z" transform="translate(-145.13 -224.3)"/><path class="cls-1" d="M512.14,243.56a25.39,25.39,0,0,1,7.93,1.1,14.77,14.77,0,0,1,5.46,3.1,12.35,12.35,0,0,1,3.17,4.7,17,17,0,0,1,1,6,23,23,0,0,1-1.37,8.05,17,17,0,0,1-4.11,6.37,18.93,18.93,0,0,1-6.84,4.2,27.4,27.4,0,0,1-9.58,1.52h-6.75l-2.36,19.2H489l6.6-54.22ZM508.8,271a13,13,0,0,0,5-.87,9.17,9.17,0,0,0,3.47-2.41,9.85,9.85,0,0,0,2-3.7,15.93,15.93,0,0,0,.66-4.72,10.42,10.42,0,0,0-.52-3.38,6.63,6.63,0,0,0-1.62-2.6,7.36,7.36,0,0,0-2.72-1.67,11.22,11.22,0,0,0-3.88-.6h-6.75L502,271Z" transform="translate(-145.13 -224.3)"/><path class="cls-1" d="M554.63,243.56a28.67,28.67,0,0,1,8,1,15.07,15.07,0,0,1,5.49,2.78,10.64,10.64,0,0,1,3.15,4.25,14.17,14.17,0,0,1,1,5.44,19.56,19.56,0,0,1-.88,5.89,17.32,17.32,0,0,1-2.54,5,17.6,17.6,0,0,1-4,3.94,19.45,19.45,0,0,1-5.44,2.62,7.6,7.6,0,0,1,1.55,1.28,7.48,7.48,0,0,1,1.22,1.8l9.68,20.21h-8.74a3.25,3.25,0,0,1-3.34-1.95l-7.95-17.59a3.29,3.29,0,0,0-1.1-1.4,3.79,3.79,0,0,0-2-.43h-3.79l-2.62,21.37h-9.67l6.59-54.22Zm-3.26,25.91a13.67,13.67,0,0,0,5-.84,9.59,9.59,0,0,0,3.5-2.33,9.39,9.39,0,0,0,2.07-3.47,13.18,13.18,0,0,0,.67-4.27,7.09,7.09,0,0,0-2.19-5.52c-1.46-1.32-3.71-2-6.73-2H548l-2.25,18.41Z" transform="translate(-145.13 -224.3)"/><path class="cls-1" d="M628.46,267a36.13,36.13,0,0,1-1,8.57,33.14,33.14,0,0,1-2.83,7.56,29.39,29.39,0,0,1-4.46,6.3,28.41,28.41,0,0,1-5.87,4.8,28,28,0,0,1-7,3.05,28.9,28.9,0,0,1-7.95,1.07,22.54,22.54,0,0,1-9.3-1.84,20.5,20.5,0,0,1-7-5.06,22.27,22.27,0,0,1-4.45-7.61,28.77,28.77,0,0,1-1.54-9.53,36,36,0,0,1,1-8.56,31.94,31.94,0,0,1,2.85-7.56,29.6,29.6,0,0,1,4.46-6.3,28.13,28.13,0,0,1,5.85-4.82,27.32,27.32,0,0,1,7-3.07,29,29,0,0,1,8-1.07,22.7,22.7,0,0,1,9.3,1.83,20.48,20.48,0,0,1,7,5.07,22.29,22.29,0,0,1,4.43,7.63A28.92,28.92,0,0,1,628.46,267Zm-10,.23a22.86,22.86,0,0,0-.92-6.68,15,15,0,0,0-2.66-5.14,11.9,11.9,0,0,0-4.26-3.3A13.38,13.38,0,0,0,605,251a16,16,0,0,0-13,6.34,22.29,22.29,0,0,0-3.66,7.31,32.75,32.75,0,0,0-1.29,9.49,23.15,23.15,0,0,0,.9,6.67,14.58,14.58,0,0,0,2.62,5.12,11.65,11.65,0,0,0,4.22,3.27,13.56,13.56,0,0,0,5.68,1.14,16.21,16.21,0,0,0,13.13-6.3,22.12,22.12,0,0,0,3.66-7.26A32.63,32.63,0,0,0,618.49,267.26Z" transform="translate(-145.13 -224.3)"/><path class="cls-2" d="M426.76,259.88A28.34,28.34,0,0,1,432.33,279a29.09,29.09,0,0,1-8.5,19.17,30.2,30.2,0,0,1-6.22,4.92,30.16,30.16,0,0,0,3.49,1.78,34,34,0,0,0,5.1-4.28,32.4,32.4,0,0,0,9.47-20.75,31.44,31.44,0,0,0-6.17-21.94c-3.2-4.26-6.45-8.49-9.71-12.71-.71.91-1.43,1.82-2.14,2.74C420.71,251.91,423.76,255.88,426.76,259.88Z" transform="translate(-145.13 -224.3)"/><path class="cls-2" d="M414.1,304.87a30.12,30.12,0,0,1-32.44-6.41,28.56,28.56,0,0,1-8.5-16.89c-1.24-8.86,1.21-16.67,6.71-23.65,7.51-9.51,14.95-19.08,22.42-28.63l.45-.53c1.8,2.31,3.54,4.55,5.27,6.79l7.51,9.66,2.14-2.74c-4.31-5.56-8.64-11.1-12.94-16.66-.43-.54-1-1-1.42-1.51h-1a5.68,5.68,0,0,0-1,.85c-8.52,10.9-17.09,21.76-25.51,32.73a31.2,31.2,0,0,0-6.18,16.65,33.2,33.2,0,0,0,37.5,35.68,33.2,33.2,0,0,0,10.56-3.27l-.62-.33C416,306.07,415,305.49,414.1,304.87Z" transform="translate(-145.13 -224.3)"/><path class="cls-2" d="M417.61,303.12a28,28,0,0,1-3.51,1.75c.94.62,1.91,1.2,2.92,1.74l.62.33a33.38,33.38,0,0,0,3.46-2A30.16,30.16,0,0,1,417.61,303.12Z" transform="translate(-145.13 -224.3)"/><path class="cls-2" d="M417.65,248c.71-.92,1.43-1.83,2.14-2.74l-2.13-2.75-2.14,2.74Z" transform="translate(-145.13 -224.3)"/><path class="cls-2" d="M465.59,272.3a32.33,32.33,0,0,0-9.48-20.74,33.08,33.08,0,0,0-5.1-4.28,31.56,31.56,0,0,0-3.45-2A33.46,33.46,0,0,0,437,242a32.23,32.23,0,0,0-20,3.6,33.3,33.3,0,0,0-17.48,32.09,31.2,31.2,0,0,0,6.18,16.65c8.42,11,17,21.83,25.5,32.73a6.43,6.43,0,0,0,1,.84h1a20,20,0,0,0,1.42-1.5q6.47-8.34,12.95-16.66l2.13-2.75q4.89-6.33,9.71-12.71A31.5,31.5,0,0,0,465.59,272.3Zm-8.91,20c-3,4-6.05,8-9.11,11.92L445.44,307c-2.51,3.23-5,6.44-7.51,9.67-1.73,2.24-3.47,4.47-5.27,6.79-.2-.24-.34-.38-.46-.54-7.47-9.54-14.91-19.11-22.41-28.62-5.51-7-8-14.79-6.71-23.65a28.56,28.56,0,0,1,8.5-16.89,28.91,28.91,0,0,1,25.24-8.34,28.42,28.42,0,0,1,10.71,3.68,29.54,29.54,0,0,1,6.22,4.92,29.13,29.13,0,0,1,8.5,19.17A28.36,28.36,0,0,1,456.68,292.3Z" transform="translate(-145.13 -224.3)"/><rect class="cls-2" x="270.95" y="22.15" width="3.38" height="57.16"/><rect class="cls-2" x="408.07" y="271.02" width="3.37" height="24.28" transform="translate(-231.28 105.33) rotate(-40)"/><polygon class="cls-2" points="274.13 49.14 271.55 51.31 259.32 36.92 261.91 34.75 274.13 49.14"/><rect class="cls-2" x="424.1" y="271.02" width="3.37" height="24.28" transform="translate(424.81 549.45) rotate(-140)"/><polygon class="cls-2" points="271.14 49.14 273.72 51.31 285.94 36.92 283.36 34.75 271.14 49.14"/><path class="cls-3" d="M428.9,258.63q-4.06-5.4-8.2-10.74l-1.51-2-.57-.74c-.75.33-1.5.7-2.24,1.09l-.83.46c-.84.48-1.66,1-2.44,1.52a33.37,33.37,0,0,0-14.29,29c0,.36.05.72.08,1.08A31.17,31.17,0,0,0,405.08,295q3.92,5.12,7.89,10.2l.34.45c.72.91,1.43,1.83,2.14,2.74.54-.23,1.07-.48,1.59-.74s1-.53,1.47-.81c.68-.39,1.34-.8,2-1.24a34.58,34.58,0,0,0,5.1-4.27,32.42,32.42,0,0,0,9.47-20.75A31.46,31.46,0,0,0,428.9,258.63Zm-26.42,12.68a29.1,29.1,0,0,1,2.36-8.22l.82,1,9.82,11.56v13.17l-12.83-15.3-.15.12-.28.23C402.27,273,402.36,272.16,402.48,271.31Zm13,22.73v8.8l-.22-.16q-3-3.87-6.07-7.72a30.82,30.82,0,0,1-6.92-16.68Zm3.38-18.43,9.64-11.34a27.46,27.46,0,0,1,3,9.41l-12.66,15.1Zm7.3-15,.47.66-7.77,9.15V251C421.31,254.19,423.75,257.37,426.16,260.59Zm-10.79-9.79.11-.08V270.4l-8-9.4-.94-1.11a29.21,29.21,0,0,1,4.42-5.47A34.11,34.11,0,0,1,415.37,250.8Zm16.36,28.93a29.15,29.15,0,0,1-8.49,19.18,31.74,31.74,0,0,1-4.38,3.72V294l12.91-15.41C431.76,279,431.75,279.36,431.73,279.73Z" transform="translate(-145.13 -224.3)"/></svg>