<?xml version="1.0" encoding="utf-8"?>
<!-- Generator: Adobe Illustrator 23.1.1, SVG Export Plug-In . SVG Version: 6.00 Build 0)  -->
<svg version="1.1" id="Capa_1" xmlns="http://www.w3.org/2000/svg" xmlns:xlink="http://www.w3.org/1999/xlink" x="0px" y="0px"
	 viewBox="0 0 480.3 97.7" style="enable-background:new 0 0 480.3 97.7;" xml:space="preserve">
<style type="text/css">
	.st0{fill:#5B5B5F;}
	.st1{fill:#386FB1;}
	.st2{fill:#60A244;}
</style>
<g>
	<g>
		<path class="st0" d="M23.4,20.1c3.4,0,6.2,0.4,8.6,1.1c2.4,0.7,4.3,1.7,5.9,3c1.5,1.3,2.6,2.8,3.4,4.5s1.1,3.7,1.1,5.7
			c0,2.1-0.3,4.1-0.9,6c-0.6,1.9-1.4,3.6-2.6,5.2c-1.1,1.6-2.5,2.9-4.1,4.1s-3.4,2.2-5.5,2.9c0.7,0.4,1.3,0.9,1.9,1.4
			c0.6,0.6,1,1.3,1.5,2.1l9.2,20.6H31.7c-2,0-3.2-0.7-3.8-2.2l-7.3-17.6c-0.3-0.7-0.7-1.2-1.2-1.5s-1.2-0.5-2.1-0.5h-3.4l-2.7,21.8
			H0l6.9-56.6H23.4z M20.1,47c2,0,3.6-0.3,5-0.9s2.5-1.4,3.4-2.3c0.9-1,1.5-2.1,2-3.5c0.4-1.3,0.6-2.7,0.6-4.2
			c0-2.3-0.7-4.1-2.1-5.5c-1.4-1.3-3.6-2-6.6-2h-5.3l-2.3,18.3h5.3V47z"/>
		<path class="st0" d="M57.7,76.7H46.4l6.9-56.6h11.3L57.7,76.7z"/>
		<path class="st0" d="M85.4,28.9l-1.8,15h17l-1.1,8.5h-17l-1.9,15.4h22l-1.1,8.9H68.1l7-56.6h33.3l-1.1,8.9L85.4,28.9L85.4,28.9z"
			/>
		<path class="st0" d="M138,48h18.2l-2.9,23.2c-1.5,1.1-3,2-4.5,2.7c-1.5,0.8-3.2,1.4-4.9,1.9c-1.7,0.5-3.5,0.9-5.4,1.1
			s-3.9,0.4-6,0.4c-3.5,0-6.6-0.6-9.5-1.9c-2.8-1.3-5.3-3-7.3-5.3s-3.6-4.9-4.7-8s-1.7-6.4-1.7-10c0-3.2,0.4-6.2,1.1-9
			s1.7-5.5,3-7.9s2.9-4.6,4.7-6.5c1.8-1.9,3.9-3.6,6.1-5s4.7-2.4,7.3-3.2c2.6-0.7,5.4-1.1,8.2-1.1c2.3,0,4.5,0.2,6.4,0.6
			s3.6,1,5.2,1.7c1.5,0.7,2.9,1.5,4.1,2.5c1.2,0.9,2.3,1.9,3.2,3l-3.7,4.6c-0.6,0.8-1.3,1.3-2.1,1.5c-0.8,0.2-1.7,0-2.6-0.6
			c-0.8-0.5-1.6-1.1-2.4-1.5c-0.8-0.5-1.6-0.9-2.5-1.2s-1.8-0.6-2.9-0.8s-2.2-0.3-3.6-0.3c-2.7,0-5.1,0.5-7.3,1.6s-4.1,2.6-5.7,4.6
			s-2.8,4.4-3.7,7.2c-0.9,2.8-1.3,5.9-1.3,9.3c0,2.6,0.3,4.9,1,7s1.6,3.8,2.8,5.2c1.2,1.4,2.6,2.5,4.3,3.3c1.7,0.8,3.5,1.2,5.6,1.2
			c1.9,0,3.5-0.2,5-0.5c1.4-0.4,2.8-0.8,4.2-1.5l1.2-10.1h-5.7c-0.7,0-1.2-0.2-1.6-0.5c-0.4-0.4-0.5-0.8-0.4-1.4L138,48z"/>
		<path class="st0" d="M215.7,44.6c0,3.1-0.4,6.1-1.1,8.9s-1.7,5.4-3,7.9s-2.9,4.6-4.7,6.6c-1.8,2-3.9,3.6-6.2,5
			c-2.3,1.4-4.7,2.5-7.4,3.2s-5.5,1.1-8.4,1.1c-3.7,0-7-0.6-9.9-1.9s-5.4-3.1-7.4-5.3c-2-2.2-3.6-4.9-4.7-8s-1.6-6.4-1.6-9.9
			c0-3.1,0.4-6.1,1.1-8.9s1.7-5.4,3-7.9s2.9-4.6,4.7-6.6s3.9-3.6,6.2-5c2.3-1.4,4.7-2.5,7.4-3.2c2.7-0.8,5.5-1.1,8.4-1.1
			c3.7,0,7,0.7,9.9,2s5.4,3.1,7.4,5.3s3.6,4.9,4.7,8C215.1,37.8,215.7,41.1,215.7,44.6z M204.1,44.9c0-2.4-0.3-4.7-0.9-6.7
			s-1.5-3.7-2.6-5.1s-2.6-2.5-4.2-3.3c-1.7-0.8-3.5-1.2-5.6-1.2c-2.7,0-5.2,0.6-7.4,1.7c-2.2,1.1-4.1,2.7-5.6,4.7s-2.7,4.5-3.6,7.3
			s-1.2,6-1.2,9.5c0,2.5,0.3,4.7,0.9,6.7s1.5,3.7,2.6,5.1s2.5,2.5,4.2,3.3s3.5,1.2,5.6,1.2c2.7,0,5.2-0.6,7.4-1.7
			c2.2-1.1,4.1-2.7,5.6-4.7s2.7-4.5,3.6-7.3C203.7,51.6,204.1,48.4,204.1,44.9z"/>
	</g>
	<g>
		<path class="st0" d="M358.9,20.1c3.3,0,6.1,0.4,8.4,1.2c2.3,0.8,4.3,1.9,5.8,3.3s2.6,3.1,3.4,5s1.1,4,1.1,6.3
			c0,3.1-0.5,5.9-1.4,8.5c-1,2.6-2.4,4.8-4.3,6.7c-1.9,1.9-4.3,3.4-7.2,4.4c-2.9,1.1-6.3,1.6-10.3,1.6h-6.6l-2.4,19.6h-11.2
			l6.9-56.6H358.9z M355.4,48.4c1.9,0,3.6-0.3,4.9-0.9c1.4-0.6,2.5-1.4,3.3-2.4c0.9-1,1.5-2.2,1.9-3.7s0.6-3,0.6-4.7
			c0-1.2-0.2-2.3-0.5-3.3s-0.9-1.9-1.5-2.6c-0.7-0.7-1.6-1.3-2.6-1.7c-1.1-0.4-2.3-0.6-3.7-0.6h-6.6l-2.5,19.8h6.7V48.4z"/>
		<path class="st0" d="M402.7,20.1c3.4,0,6.2,0.4,8.6,1.1c2.4,0.7,4.3,1.7,5.8,3s2.6,2.8,3.4,4.5c0.7,1.8,1.1,3.7,1.1,5.7
			c0,2.1-0.3,4.1-0.9,6c-0.6,1.9-1.4,3.6-2.6,5.2c-1.1,1.6-2.5,2.9-4.1,4.1s-3.4,2.2-5.5,2.9c0.7,0.4,1.3,0.9,1.9,1.4
			c0.6,0.6,1,1.3,1.5,2.1l9.2,20.6h-10.2c-2,0-3.2-0.7-3.8-2.2l-7.3-17.6c-0.3-0.7-0.7-1.2-1.2-1.5s-1.2-0.5-2.1-0.5h-3.4l-2.7,21.8
			h-11.2l6.9-56.6H402.7z M399.4,47c1.9,0,3.6-0.3,5-0.9s2.5-1.4,3.4-2.3c0.9-1,1.5-2.1,2-3.5c0.4-1.3,0.6-2.7,0.6-4.2
			c0-2.3-0.7-4.1-2.1-5.5c-1.4-1.3-3.6-2-6.6-2h-5.3l-2.3,18.3h5.3V47z"/>
		<path class="st0" d="M480.3,44.6c0,3.1-0.4,6.1-1.1,8.9c-0.7,2.8-1.7,5.4-3,7.9s-2.9,4.6-4.7,6.6s-3.9,3.6-6.2,5s-4.7,2.5-7.4,3.2
			s-5.5,1.1-8.4,1.1c-3.7,0-7-0.6-9.9-1.9s-5.4-3.1-7.4-5.3c-2-2.2-3.6-4.9-4.7-8c-1.1-3.1-1.6-6.4-1.6-9.9c0-3.1,0.4-6.1,1.1-8.9
			c0.7-2.8,1.7-5.4,3-7.9s2.9-4.6,4.7-6.6s3.9-3.6,6.2-5s4.7-2.5,7.4-3.2c2.7-0.8,5.5-1.1,8.4-1.1c3.7,0,7,0.7,9.9,2
			s5.4,3.1,7.4,5.3s3.6,4.9,4.7,8C479.7,37.8,480.3,41.1,480.3,44.6z M468.7,44.9c0-2.4-0.3-4.7-0.9-6.7c-0.6-2-1.5-3.7-2.6-5.1
			s-2.6-2.5-4.2-3.3c-1.7-0.8-3.5-1.2-5.6-1.2c-2.7,0-5.2,0.6-7.4,1.7s-4.1,2.7-5.6,4.7s-2.7,4.5-3.6,7.3s-1.2,6-1.2,9.5
			c0,2.5,0.3,4.7,0.9,6.7c0.6,2,1.5,3.7,2.6,5.1s2.5,2.5,4.2,3.3s3.5,1.2,5.6,1.2c2.7,0,5.2-0.6,7.4-1.7s4.1-2.7,5.6-4.7
			s2.7-4.5,3.6-7.3C468.3,51.6,468.7,48.4,468.7,44.9z"/>
	</g>
	<g>
		<path class="st1" d="M326.2,47.1c0-17.5-14.6-31.7-32.6-31.7c-6.2,0-12.1,1.7-17,4.7l-14.8-19l0,0c-0.5-0.7-1.3-1.1-2.2-1.1
			s-1.7,0.4-2.2,1.1l0,0l-25,32.1l-0.6,0.8h0.1c-3.2,5-4.9,10.7-4.9,16.6c0,17.5,14.6,31.7,32.6,31.7c6.2,0,12.1-1.7,17-4.7l14.8,19
			l0,0c0.5,0.7,1.3,1.1,2.2,1.1s1.7-0.4,2.2-1.1l0,0l25-32.1l0.6-0.8h-0.1C324.5,58.7,326.2,53,326.2,47.1z M316.4,63.9l-0.6,0.8
			l0,0l-21.2,27.7l0,0c-0.3,0.3-0.7,0.6-1.1,0.6s-0.9-0.2-1.1-0.6l0,0l-12.9-16.8l-2.3-3.1c-1,0.7-2,1.4-3.1,2
			c-4.3,2.5-9.3,3.9-14.6,3.9c-15.8,0-28.7-12.5-28.7-27.8c0-6.1,2-12,5.8-16.8l0.6-0.8l0,0l21.2-27.7l0,0c0.3-0.3,0.7-0.6,1.1-0.6
			c0.5,0,0.9,0.2,1.1,0.6l0,0l12.9,16.8l2.3,3.1c1-0.7,2-1.4,3.1-2c4.3-2.5,9.3-3.9,14.6-3.9c15.8,0,28.7,12.5,28.7,27.8
			C322.3,53.2,320.3,59,316.4,63.9z"/>
		<g>
			<path class="st2" d="M293.5,47.1c-0.1-1.8-0.3-3.6-0.7-5.3c-0.7-3-1.8-5.9-3.2-8.5c-0.7-1.3-1.5-2.6-2.4-3.8
				c-1.9-2.6-4.2-5-6.8-6.9c-1.2-0.9-2.5-1.8-3.8-2.5c-1.3,0.8-2.6,1.6-3.8,2.5c-2.6,2-4.9,4.3-6.8,6.9c-0.9,1.2-1.7,2.5-2.4,3.8
				c-1.4,2.6-2.5,5.5-3.2,8.5c-0.4,1.7-0.6,3.5-0.7,5.3c0,0.6-0.1,1.2-0.1,1.8c0,10.6,5.2,20.1,13.2,26.2c1.2,0.9,2.5,1.8,3.8,2.5
				c1.3-0.8,2.6-1.6,3.8-2.5c8-6.1,13.2-15.6,13.2-26.2C293.6,48.3,293.6,47.7,293.5,47.1z M289.2,45.4l-10.5,10.5v-9.6l8-9.5
				C288,39.4,288.8,42.4,289.2,45.4z M284.5,32.8l-5.8,6.9V26.5C280.9,28.3,282.9,30.4,284.5,32.8z M274.5,71.2
				c-5.9-4.9-9.9-11.9-10.6-19.9l10.6,10.6V71.2z M274.5,55.9L264,45.4c0.4-3.1,1.2-6,2.5-8.7l8,9.5V55.9z M274.5,39.7l-5.8-6.9
				c1.6-2.4,3.5-4.5,5.8-6.3V39.7z M278.7,71.2v-9.3l10.6-10.6C288.6,59.3,284.6,66.3,278.7,71.2z"/>
		</g>
	</g>
</g>
</svg>
