<?xml version="1.0" encoding="utf-8"?>
<!-- Generator: Adobe Illustrator 23.1.1, SVG Export Plug-In . SVG Version: 6.00 Build 0)  -->
<svg version="1.1" id="Capa_1" xmlns="http://www.w3.org/2000/svg" xmlns:xlink="http://www.w3.org/1999/xlink" x="0px" y="0px"
	 viewBox="0 0 483.3 103.6" style="enable-background:new 0 0 483.3 103.6;" xml:space="preserve">
<style type="text/css">
	.st0{fill:#C9CACF;}
	.st1{fill:#4A72B2;}
	.st2{fill:#55973D;}
</style>
<title>logo_riegopro</title>
<path class="st0" d="M22,19.3c2.7,0,5.4,0.3,8,1c2,0.5,3.9,1.5,5.5,2.8c1.4,1.1,2.5,2.6,3.1,4.2c0.7,1.7,1,3.6,1,5.4
	c0,2-0.3,4-0.9,5.9c-1.1,3.7-3.5,6.8-6.6,9c-1.7,1.2-3.5,2-5.4,2.6c0.6,0.4,1.1,0.8,1.6,1.3c0.5,0.5,0.9,1.1,1.2,1.8l9.7,20.2h-8.7
	c-1.4,0.2-2.8-0.6-3.3-2L19.2,54c-0.2-0.6-0.6-1-1.1-1.4c-0.6-0.3-1.3-0.5-2.1-0.4h-3.8L9.6,73.5h-9.7l6.6-54.2L22,19.3z M18.7,45.2
	c1.7,0,3.4-0.2,5.1-0.8c1.3-0.5,2.5-1.3,3.5-2.3c0.9-1,1.6-2.2,2.1-3.5c0.5-1.4,0.7-2.8,0.7-4.3c0.1-2.1-0.7-4.1-2.2-5.6
	c-1.5-1.3-3.7-2-6.7-2h-5.7l-2.2,18.4L18.7,45.2z"/>
<path class="st0" d="M54.8,73.5H45l6.6-54.2h9.8L54.8,73.5z"/>
<path class="st0" d="M81.6,27l-1.9,15.4h17.1l-0.9,7.5H78.8l-1.9,15.8h21.9l-1,7.8H66.1l6.7-54.2h31.6l-1,7.8L81.6,27z"/>
<path class="st0" d="M133,46.4h16.9l-2.7,21.8c-2.7,2-5.7,3.5-8.9,4.4c-3.5,1-7.2,1.5-10.9,1.4c-3.1,0-6.2-0.6-9.1-1.8
	c-2.7-1.2-5-2.9-7-5c-2-2.2-3.5-4.8-4.5-7.6c-1.1-3.1-1.6-6.3-1.6-9.6c0-2.9,0.3-5.8,1-8.7c0.6-2.6,1.6-5.2,2.9-7.6
	c1.2-2.3,2.7-4.4,4.5-6.3c1.7-1.8,3.7-3.4,5.9-4.8c2.2-1.3,4.5-2.3,7-3c2.6-0.7,5.2-1,7.9-1c2,0,4,0.2,6,0.6
	c1.7,0.4,3.3,0.9,4.9,1.6c1.4,0.6,2.7,1.4,3.9,2.4c1.1,0.9,2.1,1.8,3.1,2.9l-3.1,4c-0.4,0.7-1.1,1.1-1.8,1.3c-0.8,0.1-1.6,0-2.2-0.5
	l-2.2-1.4c-0.8-0.5-1.6-0.9-2.4-1.3c-0.9-0.4-1.9-0.7-2.9-0.9c-1.3-0.2-2.6-0.4-3.9-0.3c-5.1-0.1-10,2.2-13.2,6.2
	c-1.7,2.1-3,4.6-3.8,7.2c-0.9,3-1.4,6.2-1.4,9.3c0,2.4,0.3,4.7,1,7c0.6,1.9,1.5,3.7,2.8,5.2c1.2,1.4,2.7,2.5,4.3,3.3
	c1.8,0.8,3.7,1.2,5.6,1.1c1.8,0,3.6-0.2,5.4-0.6c1.5-0.4,3-1,4.5-1.7l1.2-10.3h-6c-0.5,0-1-0.1-1.4-0.5c-0.3-0.3-0.5-0.8-0.4-1.3
	L133,46.4z"/>
<path class="st0" d="M207.6,42.7c0,2.9-0.3,5.8-1,8.6c-0.6,2.6-1.6,5.2-2.8,7.6c-1.2,2.3-2.7,4.4-4.5,6.3c-1.7,1.9-3.7,3.5-5.9,4.8
	c-2.2,1.3-4.5,2.4-7,3c-2.6,0.7-5.3,1.1-8,1.1c-3.2,0.1-6.4-0.6-9.3-1.8c-2.7-1.2-5.1-2.9-7-5.1c-2-2.2-3.5-4.8-4.4-7.6
	c-1.1-3.1-1.6-6.3-1.5-9.5c0-2.9,0.3-5.8,1-8.6c0.6-2.6,1.6-5.2,2.9-7.6c1.2-2.3,2.7-4.4,4.5-6.3c1.7-1.9,3.7-3.5,5.9-4.8
	c2.2-1.3,4.5-2.4,7-3.1c2.6-0.7,5.3-1.1,8-1.1c3.2-0.1,6.4,0.6,9.3,1.8c2.7,1.2,5.1,2.9,7,5.1c2,2.2,3.5,4.8,4.4,7.6
	C207.2,36.2,207.7,39.5,207.6,42.7z M197.6,42.9c0-2.3-0.3-4.5-0.9-6.7c-0.5-1.9-1.5-3.6-2.7-5.1c-1.1-1.4-2.6-2.5-4.2-3.3
	c-1.8-0.8-3.7-1.2-5.7-1.2c-5.1-0.1-10,2.3-13,6.3c-1.7,2.2-2.9,4.7-3.6,7.3c-0.9,3.1-1.3,6.3-1.3,9.5c0,2.3,0.3,4.5,0.9,6.7
	c0.5,1.9,1.4,3.6,2.6,5.1c1.1,1.4,2.6,2.5,4.2,3.3c1.8,0.8,3.7,1.2,5.7,1.1c5.1,0.1,10-2.2,13.1-6.3c1.7-2.2,2.9-4.6,3.7-7.3
	C197.2,49.4,197.7,46.2,197.6,42.9L197.6,42.9z"/>
<path class="st0" d="M367,19.3c2.7-0.1,5.4,0.3,7.9,1.1c2,0.6,3.9,1.7,5.5,3.1c1.4,1.3,2.5,2.9,3.2,4.7c0.7,1.9,1,4,1,6
	c0,2.7-0.4,5.5-1.4,8c-0.9,2.4-2.3,4.6-4.1,6.4c-2,1.9-4.3,3.3-6.8,4.2c-3.1,1.1-6.3,1.6-9.6,1.5h-6.8l-2.4,19.2h-9.7l6.6-54.2
	L367,19.3z M363.7,46.7c1.7,0,3.4-0.3,5-0.9c1.3-0.5,2.5-1.3,3.5-2.4c0.9-1.1,1.6-2.3,2-3.7c0.5-1.5,0.7-3.1,0.7-4.7
	c0-1.1-0.2-2.3-0.5-3.4c-0.3-1-0.9-1.9-1.6-2.6c-0.8-0.7-1.7-1.3-2.7-1.7c-1.2-0.4-2.6-0.6-3.9-0.6h-6.8l-2.4,20H363.7z"/>
<path class="st0" d="M409.5,19.3c2.7,0,5.4,0.3,8,1c2,0.5,3.9,1.5,5.5,2.8c1.4,1.1,2.5,2.6,3.2,4.2c0.7,1.7,1,3.6,1,5.4
	c0,2-0.3,4-0.9,5.9c-0.6,1.8-1.4,3.5-2.5,5c-1.1,1.5-2.5,2.8-4,3.9c-1.7,1.2-3.5,2-5.4,2.6c0.6,0.4,1.1,0.8,1.5,1.3
	c0.5,0.5,0.9,1.1,1.2,1.8l9.7,20.2H418c-1.4,0.2-2.8-0.6-3.3-2l-8-17.6c-0.2-0.6-0.6-1-1.1-1.4c-0.6-0.3-1.3-0.5-2-0.4h-3.8
	l-2.6,21.4h-9.7l6.6-54.2L409.5,19.3z M406.2,45.2c1.7,0,3.4-0.3,5-0.8c1.3-0.5,2.5-1.3,3.5-2.3c0.9-1,1.6-2.2,2.1-3.5
	c0.5-1.4,0.7-2.8,0.7-4.3c0.1-2.1-0.7-4.1-2.2-5.5c-1.5-1.3-3.7-2-6.7-2h-5.7l-2.2,18.4L406.2,45.2z"/>
<path class="st0" d="M483.3,42.7c0,2.9-0.3,5.8-1,8.6c-0.6,2.6-1.6,5.2-2.8,7.6c-1.2,2.3-2.7,4.4-4.5,6.3c-1.7,1.9-3.7,3.5-5.9,4.8
	c-2.2,1.3-4.5,2.4-7,3c-2.6,0.7-5.3,1.1-8,1.1c-3.2,0.1-6.4-0.6-9.3-1.8c-2.7-1.2-5.1-2.9-7-5.1c-2-2.2-3.5-4.8-4.5-7.6
	c-1-3.1-1.6-6.3-1.5-9.5c0-2.9,0.3-5.8,1-8.6c0.6-2.6,1.6-5.2,2.8-7.6c1.2-2.3,2.7-4.4,4.5-6.3c1.7-1.9,3.7-3.5,5.8-4.8
	c2.2-1.3,4.5-2.4,7-3.1c2.6-0.7,5.3-1.1,8-1.1c3.2-0.1,6.4,0.6,9.3,1.8c2.7,1.2,5.1,2.9,7,5.1c2,2.2,3.5,4.8,4.4,7.6
	C482.9,36.2,483.4,39.5,483.3,42.7z M473.3,42.9c0-2.3-0.3-4.5-0.9-6.7c-0.5-1.9-1.4-3.6-2.7-5.1c-1.1-1.4-2.6-2.5-4.3-3.3
	c-1.8-0.8-3.7-1.2-5.6-1.1c-5.1-0.1-9.9,2.3-13,6.3c-1.7,2.2-2.9,4.7-3.7,7.3c-0.9,3.1-1.3,6.3-1.3,9.5c0,2.3,0.3,4.5,0.9,6.7
	c0.5,1.9,1.4,3.6,2.6,5.1c1.1,1.4,2.6,2.5,4.2,3.3c1.8,0.8,3.7,1.2,5.7,1.1c5.1,0.1,10-2.2,13.1-6.3c1.7-2.2,2.9-4.6,3.7-7.3
	C473,49.4,473.4,46.2,473.3,42.9L473.3,42.9z"/>
<path class="st1" d="M281.6,35.6c4.1,5.5,6.1,12.3,5.6,19.1c-0.4,7.2-3.4,14.1-8.5,19.2c-1.8,1.9-3.9,3.6-6.2,4.9
	c1.1,0.7,2.3,1.3,3.5,1.8c1.8-1.3,3.5-2.7,5.1-4.3c5.6-5.5,8.9-12.9,9.5-20.8c0.8-7.8-1.4-15.7-6.2-21.9c-3.2-4.3-6.5-8.5-9.7-12.7
	c-0.7,0.9-1.4,1.8-2.1,2.7C275.6,27.6,278.6,31.6,281.6,35.6z"/>
<path class="st1" d="M269,80.6c-11.1,4.5-23.9,2-32.4-6.4c-4.7-4.5-7.7-10.5-8.5-16.9c-1.2-8.9,1.2-16.7,6.7-23.6
	c7.5-9.5,15-19.1,22.4-28.6l0.5-0.5c1.8,2.3,3.5,4.6,5.3,6.8l7.5,9.7l2.1-2.7c-4.3-5.6-8.6-11.1-12.9-16.7c-0.4-0.5-1-1-1.4-1.5h-1
	c-0.4,0.2-0.7,0.5-1,0.9c-8.5,10.9-17.1,21.8-25.5,32.7c-3.6,4.8-5.8,10.6-6.2,16.6c-1.5,18.3,12,34.3,30.3,35.9
	c2.4,0.2,4.8,0.1,7.2-0.2c3.7-0.5,7.2-1.6,10.6-3.3l-0.6-0.3C270.9,81.8,269.9,81.2,269,80.6z"/>
<path class="st1" d="M272.5,78.8c-1.1,0.7-2.3,1.2-3.5,1.8c0.9,0.6,1.9,1.2,2.9,1.7l0.6,0.3c1.2-0.6,2.3-1.3,3.5-2
	C274.8,80.1,273.6,79.5,272.5,78.8z"/>
<path class="st1" d="M272.5,23.7c0.7-0.9,1.4-1.8,2.1-2.7l-2.1-2.8l-2.1,2.7L272.5,23.7z"/>
<path class="st1" d="M320.5,48c-0.5-7.8-3.9-15.2-9.5-20.7c-1.6-1.6-3.3-3-5.1-4.3c-1.1-0.7-2.3-1.4-3.5-2
	c-3.3-1.7-6.9-2.8-10.6-3.3c-6.9-1-13.9,0.3-20,3.6c-11.7,6.3-18.6,18.9-17.5,32.1c0.4,6,2.6,11.8,6.2,16.6
	c8.4,11,17,21.8,25.5,32.7c0.3,0.3,0.6,0.6,1,0.8h1c0.5-0.5,1-1,1.4-1.5c4.3-5.6,8.6-11.1,13-16.7l2.1-2.8c3.3-4.2,6.5-8.5,9.7-12.7
	C319,63.7,321.2,55.8,320.5,48z M311.5,68c-3,4-6,8-9.1,11.9l-2.1,2.8c-2.5,3.2-5,6.4-7.5,9.7c-1.7,2.2-3.5,4.5-5.3,6.8
	c-0.2-0.2-0.3-0.4-0.5-0.5c-7.5-9.5-14.9-19.1-22.4-28.6c-5.5-7-8-14.8-6.7-23.6c0.8-6.4,3.8-12.4,8.5-16.9c6.6-6.7,16-9.8,25.2-8.3
	c3.8,0.5,7.4,1.7,10.7,3.7c2.3,1.4,4.4,3,6.2,4.9c5.1,5.1,8.1,11.9,8.5,19.2C317.6,55.7,315.7,62.5,311.5,68z"/>
<rect x="271" y="22.1" class="st1" width="3.4" height="57.2"/>
<rect x="262.9" y="46.7" transform="matrix(0.766 -0.6428 0.6428 0.766 24.0769 183.866)" class="st1" width="3.4" height="24.3"/>
<polygon class="st1" points="274.1,49.1 271.5,51.3 259.3,36.9 261.9,34.8 "/>
<rect x="268.5" y="57.2" transform="matrix(0.6428 -0.766 0.766 0.6428 55.1724 236.0126)" class="st1" width="24.3" height="3.4"/>
<polygon class="st1" points="271.1,49.1 273.7,51.3 285.9,36.9 283.4,34.8 "/>
<path class="st2" d="M283.8,34.3c-2.7-3.6-5.4-7.2-8.2-10.7l-1.5-2l-0.6-0.7c-0.8,0.3-1.5,0.7-2.2,1.1l-0.8,0.5
	c-0.8,0.5-1.7,1-2.4,1.5c-9.4,6.6-14.8,17.5-14.3,29c0,0.4,0,0.7,0.1,1.1c0.4,6,2.5,11.9,6.2,16.7c2.6,3.4,5.2,6.8,7.9,10.2l0.3,0.5
	c0.7,0.9,1.4,1.8,2.1,2.7c0.5-0.2,1.1-0.5,1.6-0.7s1-0.5,1.5-0.8c0.7-0.4,1.3-0.8,2-1.2c1.8-1.3,3.5-2.7,5.1-4.3
	c5.6-5.5,8.9-12.9,9.5-20.8C290.7,48.4,288.5,40.6,283.8,34.3z M257.3,47c0.4-2.8,1.2-5.6,2.4-8.2l0.8,1l9.8,11.6v13.2l-12.8-15.3
	l-0.1,0.1l-0.3,0.2C257.1,48.7,257.2,47.9,257.3,47L257.3,47z M270.3,69.7v8.8l-0.2-0.2c-2-2.6-4-5.2-6.1-7.7
	c-3.9-4.7-6.3-10.6-6.9-16.7L270.3,69.7z M273.7,51.3l9.6-11.3c1.6,2.9,2.6,6.1,3,9.4l-12.7,15.1L273.7,51.3z M281,36.3l0.5,0.7
	l-7.8,9.1V26.7C276.2,29.9,278.6,33.1,281,36.3L281,36.3z M270.2,26.5l0.1-0.1v19.7l-8-9.4l-0.9-1.1c1.2-2,2.7-3.8,4.4-5.5
	C267.2,28.8,268.7,27.6,270.2,26.5L270.2,26.5z M286.6,55.5c-0.4,7.2-3.4,14.1-8.5,19.2c-1.3,1.4-2.8,2.6-4.4,3.7v-8.7l12.9-15.4
	C286.6,54.7,286.6,55.1,286.6,55.5L286.6,55.5z"/>
</svg>
