<?xml version="1.0" encoding="utf-8"?>
<!-- Generator: Adobe Illustrator 23.1.1, SVG Export Plug-In . SVG Version: 6.00 Build 0)  -->
<svg version="1.1" id="Capa_1" xmlns="http://www.w3.org/2000/svg" xmlns:xlink="http://www.w3.org/1999/xlink" x="0px" y="0px"
	 viewBox="0 0 437.5 437.5" style="enable-background:new 0 0 437.5 437.5;" xml:space="preserve">
<style type="text/css">
	.st0{fill:#FFFFFF;}
</style>
<g>
	<path class="st0" d="M140,218.8c0,43.4,35.3,78.8,78.8,78.8s78.8-35.3,78.8-78.8S262.2,140,218.8,140S140,175.3,140,218.8z
		 M218.8,157.5c33.8,0,61.2,27.5,61.2,61.2S252.5,280,218.8,280s-61.2-27.5-61.2-61.2S185,157.5,218.8,157.5z"/>
	<path class="st0" d="M168.8,224.9l26.2,26.2c1.7,1.7,3.9,2.6,6.2,2.6s4.5-0.9,6.2-2.6l52.5-52.5c3.4-3.4,3.4-9,0-12.4
		s-9-3.4-12.4,0l-46.3,46.3l-20.1-20.1c-3.4-3.4-9-3.4-12.4,0C165.4,216,165.4,221.5,168.8,224.9L168.8,224.9z"/>
	<path class="st0" d="M245,52.5c0-14.5-11.8-26.2-26.2-26.2S192.5,38,192.5,52.5s11.8,26.2,26.2,26.2S245,67,245,52.5z M210,52.5
		c0-4.8,3.9-8.8,8.8-8.8s8.8,3.9,8.8,8.8s-3.9,8.8-8.8,8.8S210,57.3,210,52.5z"/>
	<path class="st0" d="M271.2,52.5c0-29-23.5-52.5-52.5-52.5s-52.5,23.5-52.5,52.5s23.5,52.5,52.5,52.5S271.2,81.5,271.2,52.5z
		 M183.8,52.5c0-19.3,15.7-35,35-35s35,15.7,35,35s-15.7,35-35,35S183.8,71.8,183.8,52.5z"/>
	<path class="st0" d="M192.5,385c0,14.5,11.8,26.2,26.2,26.2S245,399.5,245,385s-11.8-26.2-26.2-26.2S192.5,370.5,192.5,385z
		 M227.5,385c0,4.8-3.9,8.8-8.8,8.8s-8.8-3.9-8.8-8.8s3.9-8.8,8.8-8.8S227.5,380.2,227.5,385z"/>
	<path class="st0" d="M166.2,385c0,29,23.5,52.5,52.5,52.5s52.5-23.5,52.5-52.5s-23.5-52.5-52.5-52.5S166.2,356,166.2,385z
		 M253.8,385c0,19.3-15.7,35-35,35s-35-15.7-35-35s15.7-35,35-35S253.8,365.7,253.8,385z"/>
	<path class="st0" d="M0,218.8c0,29,23.5,52.5,52.5,52.5s52.5-23.5,52.5-52.5s-23.5-52.5-52.5-52.5S0,189.8,0,218.8z M52.5,183.8
		c19.3,0,35,15.7,35,35s-15.7,35-35,35s-35-15.7-35-35S33.2,183.8,52.5,183.8z"/>
	<path class="st0" d="M385,166.2c-29,0-52.5,23.5-52.5,52.5s23.5,52.5,52.5,52.5s52.5-23.5,52.5-52.5S414,166.2,385,166.2z
		 M385,253.8c-19.3,0-35-15.7-35-35s15.7-35,35-35s35,15.7,35,35S404.3,253.8,385,253.8z"/>
	<path class="st0" d="M131.2,105c-14.5,0-26.2,11.8-26.2,26.2s11.8,26.2,26.2,26.2s26.2-11.8,26.2-26.2S145.7,105,131.2,105z
		 M131.2,140c-4.8,0-8.8-3.9-8.8-8.8s3.9-8.8,8.8-8.8c4.9,0,8.8,3.9,8.8,8.8C140,136.1,136.1,140,131.2,140z"/>
	<path class="st0" d="M280,131.2c0,14.5,11.8,26.2,26.2,26.2s26.2-11.8,26.2-26.2S320.7,105,306.2,105S280,116.8,280,131.2z
		 M306.2,122.5c4.8,0,8.8,3.9,8.8,8.8c0,4.9-3.9,8.8-8.8,8.8s-8.8-3.9-8.8-8.8S301.4,122.5,306.2,122.5z"/>
	<path class="st0" d="M157.5,306.2c0-14.5-11.8-26.2-26.2-26.2S105,291.8,105,306.2s11.8,26.2,26.2,26.2S157.5,320.7,157.5,306.2z
		 M131.2,315c-4.8,0-8.8-3.9-8.8-8.8s3.9-8.8,8.8-8.8c4.9,0,8.8,3.9,8.8,8.8S136.1,315,131.2,315z"/>
	<path class="st0" d="M306.2,280c-14.5,0-26.2,11.8-26.2,26.2s11.8,26.2,26.2,26.2s26.2-11.8,26.2-26.2S320.7,280,306.2,280z
		 M306.2,315c-4.8,0-8.8-3.9-8.8-8.8s3.9-8.8,8.8-8.8s8.8,3.9,8.8,8.8S311.1,315,306.2,315z"/>
	<path class="st0" d="M43.8,87.5V140c0,4.8,3.9,8.8,8.8,8.8s8.8-3.9,8.8-8.8V87.5C61.2,73,73,61.2,87.5,61.2h31.4l-11.3,11.3
		c-3.4,3.4-3.4,9,0,12.4c1.7,1.7,3.9,2.6,6.2,2.6s4.5-0.9,6.2-2.6l26.3-26.2c0.8-0.8,1.4-1.8,1.9-2.8c0.9-2.1,0.9-4.6,0-6.7
		c-0.4-1.1-1.1-2-1.9-2.8l-26.2-26.2c-3.4-3.4-9-3.4-12.4,0s-3.4,9,0,12.4L119,43.9H87.5C63.4,43.7,43.8,63.4,43.8,87.5L43.8,87.5z"
		/>
	<path class="st0" d="M350,43.8h-52.5c-4.8,0-8.8,3.9-8.8,8.8s3.9,8.8,8.8,8.8H350c14.5,0,26.2,11.8,26.2,26.2V119l-11.3-11.3
		c-3.4-3.4-9-3.4-12.4,0s-3.4,9,0,12.4l26.2,26.2c0.8,0.8,1.8,1.4,2.8,1.9c1.1,0.4,2.2,0.7,3.3,0.7s2.3-0.2,3.3-0.7
		c1.1-0.4,2-1.1,2.8-1.9l26.2-26.2c3.4-3.4,3.4-9,0-12.4s-9-3.4-12.4,0L393.4,119V87.5C393.8,63.4,374.1,43.8,350,43.8L350,43.8z"/>
	<path class="st0" d="M385,288.8c-4.8,0-8.8,3.9-8.8,8.8V350c0,14.5-11.8,26.2-26.2,26.2h-31.4l11.3-11.3c3.4-3.4,3.4-9,0-12.4
		s-9-3.4-12.4,0l-26.2,26.2c-0.8,0.8-1.4,1.8-1.9,2.8c-0.9,2.1-0.9,4.6,0,6.7c0.4,1.1,1.1,2,1.9,2.8l26.2,26.2
		c1.7,1.7,3.9,2.6,6.2,2.6s4.5-0.9,6.2-2.6c3.4-3.4,3.4-9,0-12.4l-11.3-11.3H350c24.1,0,43.8-19.6,43.8-43.8v-52.5
		C393.8,292.7,389.8,288.8,385,288.8L385,288.8z"/>
	<path class="st0" d="M87.5,393.8H140c4.8,0,8.8-3.9,8.8-8.8s-3.9-8.8-8.8-8.8H87.5c-14.5,0-26.2-11.8-26.2-26.2v-31.4l11.3,11.3
		c1.7,1.7,3.9,2.6,6.2,2.6s4.5-0.9,6.2-2.6c3.4-3.4,3.4-9,0-12.4l-26.2-26.2c-0.8-0.8-1.8-1.4-2.8-1.9c-2.1-0.9-4.6-0.9-6.7,0
		c-1.1,0.4-2,1.1-2.8,1.9l-26.2,26.2c-3.4,3.4-3.4,9,0,12.4s9,3.4,12.4,0L44,318.6V350C43.7,374.1,63.4,393.7,87.5,393.8L87.5,393.8
		z"/>
</g>
</svg>
