<?xml version="1.0" encoding="utf-8"?>
<!-- Generator: Adobe Illustrator 23.1.1, SVG Export Plug-In . SVG Version: 6.00 Build 0)  -->
<svg version="1.1" id="Capa_1" xmlns="http://www.w3.org/2000/svg" xmlns:xlink="http://www.w3.org/1999/xlink" x="0px" y="0px"
	 viewBox="0 0 437.5 437.5" style="enable-background:new 0 0 437.5 437.5;" xml:space="preserve">
<style type="text/css">
	.st0{fill:#FFFFFF;}
</style>
<g>
	<path class="st0" d="M245,52.5c0-14.5-11.8-26.2-26.2-26.2S192.5,38,192.5,52.5s11.8,26.2,26.2,26.2S245,67,245,52.5z M210,52.5
		c0-4.8,3.9-8.8,8.8-8.8s8.8,3.9,8.8,8.8s-3.9,8.8-8.8,8.8S210,57.3,210,52.5z"/>
	<path class="st0" d="M271.2,52.5c0-29-23.5-52.5-52.5-52.5s-52.5,23.5-52.5,52.5s23.5,52.5,52.5,52.5S271.2,81.5,271.2,52.5z
		 M183.8,52.5c0-19.3,15.7-35,35-35s35,15.7,35,35s-15.7,35-35,35S183.8,71.8,183.8,52.5z"/>
	<path class="st0" d="M192.5,385c0,14.5,11.8,26.2,26.2,26.2S245,399.5,245,385s-11.8-26.2-26.2-26.2S192.5,370.5,192.5,385z
		 M227.5,385c0,4.8-3.9,8.8-8.8,8.8s-8.8-3.9-8.8-8.8s3.9-8.8,8.8-8.8S227.5,380.2,227.5,385z"/>
	<path class="st0" d="M166.2,385c0,29,23.5,52.5,52.5,52.5s52.5-23.5,52.5-52.5s-23.5-52.5-52.5-52.5S166.2,356,166.2,385z
		 M253.8,385c0,19.3-15.7,35-35,35s-35-15.7-35-35s15.7-35,35-35S253.8,365.7,253.8,385z"/>
	<path class="st0" d="M0,218.8c0,29,23.5,52.5,52.5,52.5s52.5-23.5,52.5-52.5s-23.5-52.5-52.5-52.5S0,189.8,0,218.8z M52.5,183.8
		c19.3,0,35,15.7,35,35s-15.7,35-35,35s-35-15.7-35-35S33.2,183.8,52.5,183.8z"/>
	<path class="st0" d="M385,166.2c-29,0-52.5,23.5-52.5,52.5s23.5,52.5,52.5,52.5s52.5-23.5,52.5-52.5S414,166.2,385,166.2z
		 M385,253.8c-19.3,0-35-15.7-35-35s15.7-35,35-35s35,15.7,35,35S404.3,253.8,385,253.8z"/>
	<path class="st0" d="M43.8,87.5V140c0,4.8,3.9,8.8,8.8,8.8s8.8-3.9,8.8-8.8V87.5C61.2,73,73,61.2,87.5,61.2h31.4l-11.3,11.3
		c-3.4,3.4-3.4,9,0,12.4c1.7,1.7,3.9,2.6,6.2,2.6s4.5-0.9,6.2-2.6l26.3-26.2c0.8-0.8,1.4-1.8,1.9-2.8c0.9-2.1,0.9-4.6,0-6.7
		c-0.4-1.1-1.1-2-1.9-2.8l-26.2-26.2c-3.4-3.4-9-3.4-12.4,0s-3.4,9,0,12.4L119,43.9H87.5C63.4,43.7,43.8,63.4,43.8,87.5L43.8,87.5z"
		/>
	<path class="st0" d="M350,43.8h-52.5c-4.8,0-8.8,3.9-8.8,8.8s3.9,8.8,8.8,8.8H350c14.5,0,26.2,11.8,26.2,26.2V119l-11.3-11.3
		c-3.4-3.4-9-3.4-12.4,0s-3.4,9,0,12.4l26.2,26.2c0.8,0.8,1.8,1.4,2.8,1.9c1.1,0.4,2.2,0.7,3.3,0.7s2.3-0.2,3.3-0.7
		c1.1-0.4,2-1.1,2.8-1.9l26.2-26.2c3.4-3.4,3.4-9,0-12.4s-9-3.4-12.4,0L393.4,119V87.5C393.8,63.4,374.1,43.8,350,43.8L350,43.8z"/>
	<path class="st0" d="M385,288.8c-4.8,0-8.8,3.9-8.8,8.8V350c0,14.5-11.8,26.2-26.2,26.2h-31.4l11.3-11.3c3.4-3.4,3.4-9,0-12.4
		s-9-3.4-12.4,0l-26.2,26.2c-0.8,0.8-1.4,1.8-1.9,2.8c-0.9,2.1-0.9,4.6,0,6.7c0.4,1.1,1.1,2,1.9,2.8l26.2,26.2
		c1.7,1.7,3.9,2.6,6.2,2.6s4.5-0.9,6.2-2.6c3.4-3.4,3.4-9,0-12.4l-11.3-11.3H350c24.1,0,43.8-19.6,43.8-43.8v-52.5
		C393.8,292.7,389.8,288.8,385,288.8L385,288.8z"/>
	<path class="st0" d="M87.5,393.8H140c4.8,0,8.8-3.9,8.8-8.8s-3.9-8.8-8.8-8.8H87.5c-14.5,0-26.2-11.8-26.2-26.2v-31.4l11.3,11.3
		c1.7,1.7,3.9,2.6,6.2,2.6s4.5-0.9,6.2-2.6c3.4-3.4,3.4-9,0-12.4l-26.2-26.2c-0.8-0.8-1.8-1.4-2.8-1.9c-2.1-0.9-4.6-0.9-6.7,0
		c-1.1,0.4-2,1.1-2.8,1.9l-26.2,26.2c-3.4,3.4-3.4,9,0,12.4s9,3.4,12.4,0L44,318.6V350C43.7,374.1,63.4,393.7,87.5,393.8L87.5,393.8
		z"/>
</g>
<g>
	<g>
		<path class="st0" d="M299.5,215.9c0-28.5-23.8-51.6-53.1-51.6c-10.1,0-19.7,2.8-27.7,7.7L194.6,141l0,0c-0.8-1.1-2.1-1.8-3.6-1.8
			c-1.5,0-2.8,0.7-3.6,1.8l0,0l-40.7,52.3l-1,1.3h0.2c-5.2,8.1-8,17.4-8,27c0,28.5,23.8,51.6,53.1,51.6c10.1,0,19.7-2.8,27.7-7.7
			l24.1,30.9l0,0c0.8,1.1,2.1,1.8,3.6,1.8c1.5,0,2.8-0.7,3.6-1.8l0,0l40.7-52.3l1-1.3h-0.2C296.8,234.8,299.5,225.5,299.5,215.9z
			 M283.6,243.3l-1,1.3l0,0l-34.5,45.1l0,0c-0.5,0.5-1.1,1-1.8,1c-0.7,0-1.5-0.3-1.8-1l0,0l-21-27.4l-3.7-5c-1.6,1.1-3.3,2.3-5,3.3
			c-7,4.1-15.1,6.4-23.8,6.4c-25.7,0-46.7-20.4-46.7-45.3c0-9.9,3.3-19.5,9.4-27.4l1-1.3l0,0l34.5-45.1l0,0c0.5-0.5,1.1-1,1.8-1
			c0.8,0,1.5,0.3,1.8,1l0,0l21,27.4l3.7,5c1.6-1.1,3.3-2.3,5-3.3c7-4.1,15.1-6.4,23.8-6.4c25.7,0,46.7,20.4,46.7,45.3
			C293.2,225.8,289.9,235.3,283.6,243.3z"/>
		<g>
			<path class="st0" d="M246.3,215.9c-0.2-2.9-0.5-5.9-1.1-8.6c-1.1-4.9-2.9-9.6-5.2-13.8c-1.1-2.1-2.4-4.2-3.9-6.2
				c-3.1-4.2-6.8-8.1-11.1-11.2c-2-1.5-4.1-2.9-6.2-4.1c-2.1,1.3-4.2,2.6-6.2,4.1c-4.2,3.3-8,7-11.1,11.2c-1.5,2-2.8,4.1-3.9,6.2
				c-2.3,4.2-4.1,9-5.2,13.8c-0.7,2.8-1,5.7-1.1,8.6c0,1-0.2,2-0.2,2.9c0,17.3,8.5,32.7,21.5,42.7c2,1.5,4.1,2.9,6.2,4.1
				c2.1-1.3,4.2-2.6,6.2-4.1c13-9.9,21.5-25.4,21.5-42.7C246.4,217.9,246.4,216.9,246.3,215.9z M239.3,213.1l-17.1,17.1v-15.6
				l13-15.5C237.3,203.4,238.6,208.2,239.3,213.1z M231.6,192.6l-9.4,11.2v-21.5C225.8,185.3,229,188.7,231.6,192.6z M215.3,255.1
				c-9.6-8-16.1-19.4-17.3-32.4l17.3,17.3V255.1z M215.3,230.2l-17.1-17.1c0.7-5,2-9.8,4.1-14.2l13,15.5V230.2z M215.3,203.8
				l-9.4-11.2c2.6-3.9,5.7-7.3,9.4-10.3V203.8z M222.2,255.1V240l17.3-17.3C238.3,235.8,231.8,247.2,222.2,255.1z"/>
		</g>
	</g>
</g>
</svg>
